<?xml version="1.0" standalone="no"?><!DOCTYPE svg PUBLIC "-//W3C//DTD SVG 1.1//EN" "http://www.w3.org/Graphics/SVG/1.1/DTD/svg11.dtd"><svg t="1705400496170" class="icon" viewBox="0 0 1024 1024" version="1.1" xmlns="http://www.w3.org/2000/svg" p-id="3033" xmlns:xlink="http://www.w3.org/1999/xlink" width="200" height="200"><path d="M1001.6 905.173333l-55.466667-315.093333a74.666667 74.666667 0 0 0-60.586666-60.373333 21.333333 21.333333 0 0 0-6.4-2.346667 789.333333 789.333333 0 0 1-269.866667-106.666667 881.706667 881.706667 0 0 1-186.666667-174.72 661.333333 661.333333 0 0 1 180.48 71.68c78.08 40.96 145.28 76.16 218.453334 32.426667a88.96 88.96 0 0 0 42.666666-112C829.226667 137.173333 628.48 14.506667 487.893333 33.066667c-87.466667 11.733333-137.6 42.666667-149.333333 93.013333a123.52 123.52 0 0 0 7.253333 71.04 131.413333 131.413333 0 0 0-65.493333 21.333333c-34.346667 23.68-56.106667 66.346667-66.773333 130.133334A356.693333 356.693333 0 0 0 241.066667 567.466667h-4.48A74.026667 74.026667 0 0 0 192 603.733333l-160 277.333334a74.666667 74.666667 0 0 0 129.28 74.666666l160-277.333333a74.666667 74.666667 0 0 0-24.32-99.84 21.333333 21.333333 0 0 0-2.133333-4.266667S232.746667 494.293333 256 356.48c8.746667-51.84 24.746667-85.333333 48.853333-101.973333a100.266667 100.266667 0 0 1 61.866667-15.36c65.92 109.653333 216.96 215.68 219.093333 216.96a794.453333 794.453333 0 0 0 229.12 100.48 74.24 74.24 0 0 0-15.573333 59.52l55.466667 315.093333a74.88 74.88 0 0 0 73.386666 61.653333 75.093333 75.093333 0 0 0 13.013334-1.066666 74.88 74.88 0 0 0 60.586666-86.4zM247.68 610.346667a32.426667 32.426667 0 0 1 8.533333-1.066667 31.573333 31.573333 0 0 1 15.786667 4.266667 32 32 0 0 1 11.733333 42.666666l-5.333333 9.173334-55.466667-32 5.333334-9.173334a31.786667 31.786667 0 0 1 19.413333-13.866666zM80 945.92a32 32 0 0 1-11.733333-42.666667l5.333333-9.173333L128 925.013333l-5.333333 9.173334a32 32 0 0 1-42.666667 11.733333zM149.333333 888.106667l-55.466666-32 106.666666-184.746667L256 704zM380.16 135.68c8.96-38.613333 66.56-53.973333 113.28-60.373333 119.04-15.573333 301.44 93.226667 330.666667 176.426666a46.506667 46.506667 0 0 1-24.32 61.44c-50.133333 30.08-97.493333 8.106667-176.64-33.493333a696.533333 696.533333 0 0 0-192-75.733333c-13.653333-2.773333-26.453333-4.693333-38.4-5.973334a96.853333 96.853333 0 0 1-12.586667-62.293333zM905.813333 608l-64 11.093333-1.92-10.453333a32 32 0 0 1 26.026667-37.12h5.546667A32.213333 32.213333 0 0 1 903.893333 597.333333zM850.133333 661.333333l64-11.093333 37.12 210.133333-64 11.093334z m104.106667 275.2a32 32 0 0 1-57.6-12.8l-1.92-10.453333 64-11.093333 1.92 10.453333a31.786667 31.786667 0 0 1-6.4 23.893333z" p-id="3034" fill="#8a8a8a"></path></svg>